<mxfile host="app.diagrams.net" modified="2023-05-06T18:19:20.895Z" agent="Mozilla/5.0 (Windows NT 10.0; Win64; x64) AppleWebKit/537.36 (KHTML, like Gecko) Chrome/111.0.0.0 Safari/537.36" etag="K9oq356ujPXO7cg-rMc4" version="21.1.6" type="device">
  <diagram name="Página-1" id="iUuWERn9lVjpPv_fqiZB">
    <mxGraphModel dx="2901" dy="796" grid="1" gridSize="10" guides="1" tooltips="1" connect="1" arrows="1" fold="1" page="1" pageScale="1" pageWidth="827" pageHeight="1169" math="0" shadow="0">
      <root>
        <mxCell id="0" />
        <mxCell id="1" parent="0" />
        <mxCell id="cQyTdW3mTSxmYef8ahg1-3" value="" style="edgeStyle=orthogonalEdgeStyle;rounded=0;orthogonalLoop=1;jettySize=auto;html=1;fontSize=14;" edge="1" parent="1" source="cQyTdW3mTSxmYef8ahg1-1" target="cQyTdW3mTSxmYef8ahg1-2">
          <mxGeometry relative="1" as="geometry" />
        </mxCell>
        <mxCell id="cQyTdW3mTSxmYef8ahg1-1" value="Recebe a receita da bebida por meio da aplicação web ou pelo M5STACK" style="rounded=0;whiteSpace=wrap;html=1;horizontal=1;verticalAlign=middle;fontSize=14;" vertex="1" parent="1">
          <mxGeometry x="-190" y="20" width="240" height="30" as="geometry" />
        </mxCell>
        <mxCell id="cQyTdW3mTSxmYef8ahg1-7" style="edgeStyle=orthogonalEdgeStyle;rounded=0;orthogonalLoop=1;jettySize=auto;html=1;exitX=0.5;exitY=1;exitDx=0;exitDy=0;entryX=0.5;entryY=1;entryDx=0;entryDy=0;fontSize=14;" edge="1" parent="1" source="cQyTdW3mTSxmYef8ahg1-2" target="cQyTdW3mTSxmYef8ahg1-6">
          <mxGeometry relative="1" as="geometry" />
        </mxCell>
        <mxCell id="cQyTdW3mTSxmYef8ahg1-11" value="" style="edgeStyle=orthogonalEdgeStyle;rounded=0;orthogonalLoop=1;jettySize=auto;html=1;fontSize=14;" edge="1" parent="1" source="cQyTdW3mTSxmYef8ahg1-2" target="cQyTdW3mTSxmYef8ahg1-10">
          <mxGeometry relative="1" as="geometry" />
        </mxCell>
        <mxCell id="cQyTdW3mTSxmYef8ahg1-2" value="O horário definido da bebida já passou?" style="rhombus;whiteSpace=wrap;html=1;fontSize=14;" vertex="1" parent="1">
          <mxGeometry x="-145" y="130" width="150" height="140" as="geometry" />
        </mxCell>
        <mxCell id="cQyTdW3mTSxmYef8ahg1-5" value="Não" style="text;html=1;strokeColor=none;fillColor=none;align=center;verticalAlign=middle;whiteSpace=wrap;rounded=0;fontSize=14;" vertex="1" parent="1">
          <mxGeometry x="-140" y="240" width="60" height="30" as="geometry" />
        </mxCell>
        <mxCell id="cQyTdW3mTSxmYef8ahg1-9" style="edgeStyle=orthogonalEdgeStyle;rounded=0;orthogonalLoop=1;jettySize=auto;html=1;exitX=0.5;exitY=0;exitDx=0;exitDy=0;fontSize=14;" edge="1" parent="1" source="cQyTdW3mTSxmYef8ahg1-6">
          <mxGeometry relative="1" as="geometry">
            <mxPoint x="-70" y="100" as="targetPoint" />
            <Array as="points">
              <mxPoint x="-290" y="100" />
            </Array>
          </mxGeometry>
        </mxCell>
        <mxCell id="cQyTdW3mTSxmYef8ahg1-6" value="Armazena a bebida&amp;nbsp;&amp;nbsp;" style="rounded=0;whiteSpace=wrap;html=1;horizontal=1;verticalAlign=middle;fontSize=14;" vertex="1" parent="1">
          <mxGeometry x="-365" y="172.5" width="150" height="30" as="geometry" />
        </mxCell>
        <mxCell id="cQyTdW3mTSxmYef8ahg1-14" value="" style="edgeStyle=orthogonalEdgeStyle;rounded=0;orthogonalLoop=1;jettySize=auto;html=1;" edge="1" parent="1" source="cQyTdW3mTSxmYef8ahg1-10" target="cQyTdW3mTSxmYef8ahg1-13">
          <mxGeometry relative="1" as="geometry" />
        </mxCell>
        <mxCell id="cQyTdW3mTSxmYef8ahg1-18" style="edgeStyle=orthogonalEdgeStyle;rounded=0;orthogonalLoop=1;jettySize=auto;html=1;exitX=1;exitY=0.5;exitDx=0;exitDy=0;entryX=0;entryY=0.5;entryDx=0;entryDy=0;" edge="1" parent="1" source="cQyTdW3mTSxmYef8ahg1-10" target="cQyTdW3mTSxmYef8ahg1-17">
          <mxGeometry relative="1" as="geometry" />
        </mxCell>
        <mxCell id="cQyTdW3mTSxmYef8ahg1-10" value="Há uma caneca &lt;br style=&quot;font-size: 14px;&quot;&gt;disponível para uso?" style="rhombus;whiteSpace=wrap;html=1;fontSize=14;" vertex="1" parent="1">
          <mxGeometry x="120" y="130" width="150" height="140" as="geometry" />
        </mxCell>
        <mxCell id="cQyTdW3mTSxmYef8ahg1-12" value="Sim" style="text;html=1;strokeColor=none;fillColor=none;align=center;verticalAlign=middle;whiteSpace=wrap;rounded=0;fontSize=14;" vertex="1" parent="1">
          <mxGeometry x="-10" y="170" width="60" height="30" as="geometry" />
        </mxCell>
        <mxCell id="cQyTdW3mTSxmYef8ahg1-15" style="edgeStyle=orthogonalEdgeStyle;rounded=0;orthogonalLoop=1;jettySize=auto;html=1;exitX=0;exitY=0.5;exitDx=0;exitDy=0;" edge="1" parent="1" source="cQyTdW3mTSxmYef8ahg1-13">
          <mxGeometry relative="1" as="geometry">
            <mxPoint x="80" y="200" as="targetPoint" />
          </mxGeometry>
        </mxCell>
        <mxCell id="cQyTdW3mTSxmYef8ahg1-13" value="Espera o usuário colocar uma caneca" style="rounded=0;whiteSpace=wrap;html=1;fontSize=14;" vertex="1" parent="1">
          <mxGeometry x="117.5" y="360" width="155" height="30" as="geometry" />
        </mxCell>
        <mxCell id="cQyTdW3mTSxmYef8ahg1-16" value="Não" style="text;html=1;strokeColor=none;fillColor=none;align=center;verticalAlign=middle;whiteSpace=wrap;rounded=0;fontSize=14;" vertex="1" parent="1">
          <mxGeometry x="190" y="260" width="60" height="30" as="geometry" />
        </mxCell>
        <mxCell id="cQyTdW3mTSxmYef8ahg1-22" style="edgeStyle=orthogonalEdgeStyle;rounded=0;orthogonalLoop=1;jettySize=auto;html=1;exitX=0.5;exitY=1;exitDx=0;exitDy=0;" edge="1" parent="1" source="cQyTdW3mTSxmYef8ahg1-17" target="cQyTdW3mTSxmYef8ahg1-20">
          <mxGeometry relative="1" as="geometry" />
        </mxCell>
        <mxCell id="cQyTdW3mTSxmYef8ahg1-17" value="Coloca a caneca na próxima posição da receita" style="rounded=0;whiteSpace=wrap;html=1;fontSize=14;" vertex="1" parent="1">
          <mxGeometry x="516" y="185" width="192" height="30" as="geometry" />
        </mxCell>
        <mxCell id="cQyTdW3mTSxmYef8ahg1-19" value="Sim" style="text;html=1;strokeColor=none;fillColor=none;align=center;verticalAlign=middle;whiteSpace=wrap;rounded=0;fontSize=14;" vertex="1" parent="1">
          <mxGeometry x="260" y="170" width="60" height="30" as="geometry" />
        </mxCell>
        <mxCell id="cQyTdW3mTSxmYef8ahg1-24" value="" style="edgeStyle=orthogonalEdgeStyle;rounded=0;orthogonalLoop=1;jettySize=auto;html=1;" edge="1" parent="1" source="cQyTdW3mTSxmYef8ahg1-20" target="cQyTdW3mTSxmYef8ahg1-23">
          <mxGeometry relative="1" as="geometry" />
        </mxCell>
        <mxCell id="cQyTdW3mTSxmYef8ahg1-20" value="Liga o conjunto referente a posição da caneca pelo tempo determinado pela receita" style="rounded=0;whiteSpace=wrap;html=1;fontSize=14;" vertex="1" parent="1">
          <mxGeometry x="470" y="360" width="284" height="30" as="geometry" />
        </mxCell>
        <mxCell id="cQyTdW3mTSxmYef8ahg1-25" style="edgeStyle=orthogonalEdgeStyle;rounded=0;orthogonalLoop=1;jettySize=auto;html=1;exitX=0;exitY=0.5;exitDx=0;exitDy=0;" edge="1" parent="1" source="cQyTdW3mTSxmYef8ahg1-23">
          <mxGeometry relative="1" as="geometry">
            <mxPoint x="390" y="200" as="targetPoint" />
          </mxGeometry>
        </mxCell>
        <mxCell id="cQyTdW3mTSxmYef8ahg1-28" value="" style="edgeStyle=orthogonalEdgeStyle;rounded=0;orthogonalLoop=1;jettySize=auto;html=1;" edge="1" parent="1" source="cQyTdW3mTSxmYef8ahg1-23" target="cQyTdW3mTSxmYef8ahg1-27">
          <mxGeometry relative="1" as="geometry" />
        </mxCell>
        <mxCell id="cQyTdW3mTSxmYef8ahg1-23" value="Terminou a receita?" style="rhombus;whiteSpace=wrap;html=1;fontSize=14;" vertex="1" parent="1">
          <mxGeometry x="537" y="470" width="150" height="140" as="geometry" />
        </mxCell>
        <mxCell id="cQyTdW3mTSxmYef8ahg1-26" value="Não" style="text;html=1;strokeColor=none;fillColor=none;align=center;verticalAlign=middle;whiteSpace=wrap;rounded=0;fontSize=14;" vertex="1" parent="1">
          <mxGeometry x="490" y="510" width="60" height="30" as="geometry" />
        </mxCell>
        <mxCell id="cQyTdW3mTSxmYef8ahg1-27" value="Coloca a caneca na posição de entrada/saída" style="rounded=0;whiteSpace=wrap;html=1;fontSize=14;" vertex="1" parent="1">
          <mxGeometry x="516" y="690" width="192" height="30" as="geometry" />
        </mxCell>
        <mxCell id="cQyTdW3mTSxmYef8ahg1-29" value="Sim" style="text;html=1;strokeColor=none;fillColor=none;align=center;verticalAlign=middle;whiteSpace=wrap;rounded=0;fontSize=14;" vertex="1" parent="1">
          <mxGeometry x="600" y="600" width="60" height="30" as="geometry" />
        </mxCell>
      </root>
    </mxGraphModel>
  </diagram>
</mxfile>
